<?xml version="1.0" standalone="no"?>
<!DOCTYPE svg PUBLIC "-//W3C//DTD SVG 20010904//EN"
 "http://www.w3.org/TR/2001/REC-SVG-20010904/DTD/svg10.dtd">
<svg version="1.0" xmlns="http://www.w3.org/2000/svg"
 width="512.000000pt" height="512.000000pt" viewBox="0 0 512.000000 512.000000"
 preserveAspectRatio="xMidYMid meet">
<metadata>
Created by potrace 1.14, written by Peter Selinger 2001-2017
</metadata>
<g transform="translate(0.000000,512.000000) scale(0.100000,-0.100000)"
fill="#000000" stroke="none">
<path d="M0 2560 l0 -2560 2560 0 2560 0 0 2560 0 2560 -2560 0 -2560 0 0
-2560z m2668 1544 c77 -6 91 -10 95 -25 4 -14 14 -19 41 -19 26 0 36 -4 36
-16 0 -9 9 -18 20 -21 18 -5 20 -14 20 -84 0 -72 -2 -79 -20 -79 -13 0 -20 -7
-20 -20 0 -32 -27 -23 -34 11 -3 17 -6 56 -6 85 0 41 -4 54 -15 54 -8 0 -15 7
-15 15 0 10 -10 15 -34 15 -54 0 -96 11 -96 26 0 11 -23 14 -105 14 -82 0
-105 -3 -105 -14 0 -14 -42 -26 -91 -26 -19 0 -29 -5 -29 -15 0 -10 -14 -17
-40 -21 -30 -5 -40 -11 -40 -25 0 -15 -7 -19 -35 -19 -28 0 -35 -4 -35 -20 0
-13 -7 -20 -20 -20 -13 0 -20 -7 -20 -20 0 -13 -7 -20 -19 -20 -15 0 -21 -10
-26 -40 -5 -30 -11 -40 -26 -40 -16 0 -19 -7 -19 -40 0 -33 -3 -40 -20 -40
-18 0 -20 -7 -20 -65 0 -58 -2 -65 -20 -65 -19 0 -20 -7 -20 -96 0 -87 2 -96
20 -101 17 -5 20 -14 20 -64 0 -52 2 -59 20 -59 17 0 20 -7 20 -40 0 -33 3
-40 20 -40 14 0 20 -7 20 -21 0 -12 8 -23 20 -26 11 -3 20 -12 20 -20 0 -8 9
-17 20 -20 11 -3 20 -12 20 -20 0 -8 9 -17 20 -20 11 -3 20 -12 20 -19 0 -8 9
-14 21 -14 12 0 23 -8 26 -19 3 -13 17 -22 44 -26 21 -4 39 -12 39 -19 0 -17
74 -26 211 -26 163 0 226 9 232 32 7 27 80 22 85 -5 3 -12 -4 -20 -17 -24 -12
-3 -21 -11 -21 -18 0 -7 -19 -16 -45 -19 -27 -4 -45 -13 -45 -20 0 -9 -27 -15
-90 -19 -118 -9 -270 2 -270 18 0 7 -20 16 -45 19 -28 5 -45 12 -45 21 0 8
-16 16 -40 20 -24 4 -40 12 -40 20 0 8 -15 17 -34 20 -22 5 -36 14 -39 26 -3
11 -14 19 -26 19 -14 0 -21 6 -21 20 0 13 -7 20 -20 20 -17 0 -20 7 -20 40 0
33 -3 40 -20 40 -13 0 -20 7 -20 20 0 13 -7 20 -20 20 -17 0 -20 7 -20 45 0
38 -3 45 -20 45 -19 0 -20 7 -20 215 0 208 1 215 20 215 17 0 20 7 20 45 0 38
3 45 19 45 15 0 21 10 26 40 4 25 12 40 21 40 8 0 14 9 14 20 0 13 7 20 20 20
13 0 20 7 20 20 0 13 7 20 20 20 13 0 20 7 20 20 0 15 7 20 25 20 18 0 25 5
25 20 0 16 7 20 36 20 27 0 37 5 41 20 4 15 14 20 40 20 26 0 36 5 40 20 4 16
16 20 67 23 122 7 195 7 284 1z m-1168 -18 c0 -10 16 -17 45 -22 35 -5 45 -10
45 -25 0 -12 7 -19 20 -19 13 0 20 -7 20 -20 0 -13 7 -20 20 -20 13 0 20 -7
20 -20 0 -11 6 -20 14 -20 18 0 26 -45 26 -149 0 -97 -7 -131 -25 -131 -7 0
-15 -17 -19 -39 -4 -27 -12 -40 -26 -44 -11 -3 -20 -12 -20 -21 0 -9 -13 -17
-34 -21 -34 -7 -46 -24 -46 -67 0 -14 8 -18 39 -18 30 0 40 -4 44 -20 3 -12
14 -20 26 -20 14 0 21 -6 21 -20 0 -13 7 -20 20 -20 13 0 20 -7 20 -20 0 -11
6 -20 14 -20 19 0 26 -45 26 -171 0 -100 -2 -109 -19 -109 -14 0 -20 -10 -25
-39 -4 -27 -12 -40 -26 -44 -11 -3 -20 -12 -20 -20 0 -9 -14 -17 -35 -21 -19
-4 -35 -13 -35 -20 0 -13 -49 -26 -102 -26 -18 0 -28 -5 -28 -15 0 -13 -34
-15 -245 -15 -238 0 -245 1 -245 20 0 11 -7 20 -15 20 -8 0 -15 7 -15 15 0 10
15 15 58 17 l57 3 0 550 0 550 -36 3 c-27 2 -38 9 -42 23 -3 10 -12 19 -21 19
-9 0 -16 7 -16 15 0 13 38 15 280 15 237 0 280 -2 280 -14z m1870 0 c0 -7 -9
-16 -20 -19 -11 -3 -20 -12 -20 -21 0 -13 -12 -16 -60 -16 l-60 0 0 -555 0
-555 80 0 c61 0 80 -3 80 -14 0 -7 -9 -16 -20 -19 -11 -3 -20 -12 -20 -21 0
-14 -20 -16 -160 -16 l-160 0 0 35 0 35 60 0 60 0 0 555 0 555 -60 0 -60 0 0
35 0 35 180 0 c147 0 180 -3 180 -14z m249 -1692 c17 -4 31 -12 31 -19 0 -7
19 -16 45 -19 28 -5 45 -12 45 -21 0 -8 16 -16 40 -20 30 -5 40 -11 40 -26 0
-12 7 -19 20 -19 13 0 20 -7 20 -20 0 -13 7 -20 20 -20 11 0 20 -7 20 -15 0
-8 9 -15 20 -15 15 0 20 -7 20 -25 0 -18 5 -25 20 -25 13 0 20 -7 20 -20 0
-13 7 -20 20 -20 16 0 20 -7 20 -36 0 -27 5 -37 20 -41 16 -4 20 -14 20 -44 0
-32 3 -39 20 -39 17 0 20 -7 20 -49 0 -68 10 -111 26 -111 11 0 14 -22 14
-100 0 -78 -3 -100 -14 -100 -16 0 -26 -43 -26 -110 0 -39 -4 -49 -20 -53 -16
-4 -20 -14 -20 -46 0 -34 -3 -41 -20 -41 -17 0 -20 -7 -20 -40 0 -33 -3 -40
-20 -40 -13 0 -20 -7 -20 -20 0 -13 -7 -20 -20 -20 -13 0 -20 -7 -20 -20 0
-13 -7 -20 -20 -20 -13 0 -20 -7 -20 -20 0 -13 -7 -20 -20 -20 -13 0 -20 -7
-20 -20 0 -13 -7 -20 -20 -20 -13 0 -20 -7 -20 -20 0 -17 -7 -20 -40 -20 -33
0 -40 -3 -40 -20 0 -17 -7 -20 -41 -20 -32 0 -42 -4 -46 -19 -4 -17 -19 -20
-124 -26 -91 -6 -119 -10 -119 -21 0 -8 -7 -14 -15 -14 -8 0 -15 6 -15 14 0
15 -32 23 -67 18 -13 -2 -23 -9 -23 -17 0 -17 -68 -29 -120 -20 l-40 7 0 59
c0 52 2 59 20 59 11 0 20 7 20 15 0 11 11 15 40 15 33 0 40 -3 40 -20 0 -13 7
-20 20 -20 13 0 20 -7 20 -20 0 -19 7 -20 134 -20 148 0 196 6 196 25 0 8 18
16 40 20 23 4 40 12 40 20 0 8 17 16 40 20 30 5 40 11 40 26 0 12 7 19 20 19
11 0 20 6 20 14 0 9 15 17 39 21 35 6 40 10 45 41 4 20 13 34 21 34 9 0 15 10
15 25 0 18 5 25 20 25 13 0 20 7 20 20 0 13 7 20 20 20 15 0 20 7 20 29 0 48
12 91 25 91 15 0 25 45 25 116 0 39 4 54 14 54 7 0 16 12 19 27 7 40 -3 93
-19 93 -10 0 -14 14 -14 49 0 66 -10 111 -25 111 -13 0 -25 43 -25 91 0 22 -5
29 -20 29 -15 0 -20 7 -20 25 0 18 -5 25 -20 25 -16 0 -20 7 -20 35 0 28 -4
35 -20 35 -13 0 -20 7 -20 20 0 13 -7 20 -20 20 -13 0 -20 7 -20 19 0 15 -10
21 -40 26 -30 5 -40 11 -40 26 0 14 -7 19 -25 19 -15 0 -25 6 -25 14 0 16 -30
26 -77 26 -26 0 -33 4 -33 20 0 19 -7 20 -194 20 -209 0 -256 -5 -256 -26 0
-10 -13 -14 -40 -14 -33 0 -40 -3 -40 -19 0 -15 -10 -21 -40 -26 -26 -4 -40
-12 -40 -22 0 -8 -9 -17 -19 -20 -11 -3 -21 -13 -24 -24 -3 -11 -14 -19 -26
-19 -14 0 -21 -6 -21 -20 0 -13 -7 -20 -20 -20 -13 0 -20 -7 -20 -20 0 -11 -7
-20 -15 -20 -8 0 -17 -14 -21 -35 -4 -25 -11 -35 -25 -35 -14 0 -19 -7 -19
-25 0 -15 -6 -25 -14 -25 -14 0 -26 -42 -26 -91 0 -18 -5 -29 -14 -29 -9 0
-17 -15 -21 -40 -5 -30 -11 -40 -26 -40 -12 0 -19 -7 -19 -20 0 -13 -7 -20
-20 -20 -13 0 -20 -7 -20 -19 0 -15 -10 -21 -40 -26 -23 -4 -40 -12 -40 -20 0
-8 -17 -16 -40 -20 -30 -5 -40 -11 -40 -26 0 -12 7 -19 20 -19 17 0 20 -7 20
-40 0 -33 3 -40 20 -40 17 0 20 -7 20 -40 0 -33 3 -40 20 -40 17 0 20 -7 20
-40 0 -33 3 -40 20 -40 17 0 20 -7 20 -40 0 -33 3 -40 20 -40 17 0 20 -7 20
-40 0 -33 3 -40 20 -40 17 0 20 -7 20 -40 l0 -39 83 -3 82 -3 3 -37 3 -38
-105 0 c-99 0 -106 1 -106 20 0 13 -7 20 -20 20 -17 0 -20 7 -20 40 0 33 -3
40 -20 40 -17 0 -20 7 -20 40 0 33 -3 40 -20 40 -17 0 -20 7 -20 40 0 33 -3
40 -20 40 -17 0 -20 7 -20 40 0 33 -3 40 -20 40 -17 0 -20 7 -20 41 0 32 -4
42 -20 46 -15 4 -20 14 -20 40 0 26 -5 36 -19 40 -12 3 -21 17 -26 39 -6 32
-8 34 -45 34 -29 0 -40 -4 -40 -15 0 -10 -11 -15 -35 -15 -24 0 -35 5 -35 15
0 8 -9 15 -20 15 -11 0 -20 -7 -20 -15 0 -8 -9 -15 -20 -15 -19 0 -20 -7 -20
-245 l0 -245 73 0 c104 0 117 -5 117 -46 l0 -34 -180 0 -180 0 0 40 0 40 43 0
42 0 -1 548 -2 547 -38 0 c-39 0 -39 0 -42 43 l-3 42 214 0 c229 0 277 -5 277
-26 0 -9 11 -14 29 -14 49 0 91 -12 91 -26 0 -8 9 -14 20 -14 13 0 20 -7 20
-20 0 -13 7 -20 20 -20 13 0 20 -7 20 -20 0 -13 7 -20 19 -20 15 0 20 -10 25
-45 7 -43 9 -45 42 -45 28 0 34 4 34 21 0 12 8 23 20 26 13 3 22 17 26 39 4
24 12 34 25 34 12 0 19 7 19 19 0 13 10 21 34 25 22 4 36 13 39 26 3 12 14 20
26 20 12 0 21 6 21 15 0 10 14 17 40 21 30 5 40 11 40 25 0 15 8 19 40 19 28
0 40 4 40 14 0 8 10 17 23 19 36 7 392 8 426 1z m-2060 -80 c17 -4 31 -13 31
-20 0 -9 12 -14 33 -14 49 0 75 -10 80 -31 3 -11 14 -19 26 -19 12 0 21 -6 21
-14 0 -7 9 -16 20 -19 12 -3 20 -14 20 -26 0 -14 6 -21 20 -21 17 0 20 -7 20
-40 0 -27 4 -40 14 -40 18 0 26 -31 26 -102 0 -51 -2 -58 -20 -58 -16 0 -20
-7 -20 -37 0 -53 -10 -83 -26 -83 -8 0 -14 -9 -14 -20 0 -13 -7 -20 -20 -20
-13 0 -20 -7 -20 -19 0 -15 -10 -21 -40 -26 -22 -4 -40 -12 -40 -20 0 -14 -52
-25 -122 -25 -36 0 -48 -4 -48 -15 0 -12 -16 -15 -80 -15 -64 0 -80 3 -80 15
0 8 -9 15 -20 15 -13 0 -20 -7 -20 -20 0 -13 -7 -20 -20 -20 -19 0 -20 -7 -20
-240 l0 -240 100 0 100 0 0 -40 0 -40 -185 0 c-102 0 -185 4 -185 9 0 5 3 23
6 40 6 28 10 31 45 31 l39 0 -2 548 -3 547 -36 3 c-32 3 -38 7 -43 34 -3 16
-3 34 0 39 6 10 414 12 463 3z m2014 -144 c3 -12 14 -20 26 -20 12 0 21 -6 21
-15 0 -8 7 -15 15 -15 9 0 15 -9 15 -25 0 -16 -6 -25 -15 -25 -22 0 -18 -27 5
-33 12 -3 20 -14 20 -26 0 -18 6 -21 40 -21 33 0 40 3 40 20 0 13 7 20 20 20
13 0 20 -7 20 -20 0 -13 7 -20 20 -20 13 0 20 -7 20 -20 0 -13 7 -20 19 -20
15 0 19 -10 23 -56 6 -76 0 -104 -23 -104 -16 0 -19 -8 -19 -45 0 -38 3 -45
20 -45 11 0 20 -7 20 -15 0 -8 9 -15 20 -15 18 0 20 -7 20 -80 0 -73 -2 -80
-20 -80 -15 0 -20 -7 -20 -25 0 -25 -1 -25 -80 -25 l-80 0 0 -40 c0 -29 4 -40
15 -40 8 0 15 -4 15 -9 0 -5 3 -23 6 -40 6 -27 4 -31 -15 -31 -14 0 -21 -6
-21 -20 0 -17 -7 -20 -40 -20 -33 0 -40 -3 -40 -20 0 -17 -7 -20 -45 -20 -38
0 -45 3 -45 20 0 13 -7 20 -20 20 -13 0 -20 7 -20 20 0 17 -7 20 -40 20 l-40
0 0 -40 c0 -33 -3 -40 -20 -40 -13 0 -20 -7 -20 -20 0 -17 -7 -20 -40 -20 -33
0 -40 3 -40 20 0 17 -7 20 -40 20 -33 0 -40 3 -40 20 0 13 -7 20 -20 20 -18 0
-20 7 -20 60 l0 60 -81 0 c-72 0 -81 2 -86 20 -3 11 -11 20 -18 20 -8 0 -16
17 -20 40 -4 25 -12 40 -21 40 -8 0 -14 10 -14 25 0 16 6 25 15 25 8 0 15 7
15 16 0 9 9 18 19 21 34 9 43 83 11 83 -13 0 -20 7 -20 20 0 13 -7 20 -19 20
-25 0 -30 25 -24 120 l6 80 78 0 79 0 0 99 0 99 40 7 c22 4 40 12 40 20 0 16
50 26 90 19 21 -5 30 -12 30 -25 0 -14 7 -19 25 -19 16 0 25 -6 25 -15 0 -8 7
-15 15 -15 8 0 15 7 15 15 0 8 9 15 19 15 15 0 21 10 26 40 l7 40 73 0 c64 0
73 -2 78 -20z"/>
<path d="M1135 4021 c-7 -12 -6 -444 2 -488 4 -24 11 -33 24 -33 11 0 19 7 19
15 0 13 25 15 161 15 150 0 161 1 166 19 3 12 17 21 38 25 21 4 35 14 38 26 3
11 12 20 20 20 15 0 27 40 27 91 0 19 5 29 15 29 11 0 15 11 15 40 0 29 -4 40
-15 40 -10 0 -15 10 -15 29 0 49 -12 91 -26 91 -8 0 -14 9 -14 20 0 14 -7 20
-21 20 -12 0 -23 8 -26 19 -4 15 -18 19 -86 25 -123 9 -315 7 -322 -3z"/>
<path d="M1140 3433 c0 -10 -1 -128 -3 -263 l-2 -245 80 -3 c44 -2 135 -1 202
3 108 6 122 9 126 26 3 11 14 19 26 19 12 0 21 6 21 15 0 8 7 15 16 15 9 0 18
9 21 19 3 11 13 21 24 24 15 4 19 14 19 46 0 30 4 41 15 41 12 0 15 13 15 60
0 44 -4 60 -14 60 -8 0 -16 16 -20 40 -4 26 -11 40 -21 40 -8 0 -15 9 -15 20
0 14 -7 20 -21 20 -12 0 -23 8 -26 20 -3 13 -14 20 -28 20 -44 0 -85 13 -85
26 0 11 -32 14 -165 14 -150 0 -165 -2 -165 -17z"/>
<path d="M2183 2232 l-23 -3 0 -239 c0 -229 1 -238 20 -243 11 -3 20 -12 20
-21 0 -9 8 -16 20 -16 11 0 20 7 20 15 0 10 11 15 35 15 24 0 35 -5 35 -15 0
-8 9 -15 20 -15 11 0 20 6 20 14 0 10 23 16 85 21 60 5 85 11 85 20 0 8 17 16
40 20 30 5 40 11 40 26 0 12 7 19 19 19 15 0 21 10 26 40 4 25 12 40 21 40 11
0 14 18 14 80 0 73 -2 80 -20 80 -15 0 -20 7 -20 25 0 18 -5 25 -20 25 -13 0
-20 7 -20 20 0 13 -7 20 -20 20 -11 0 -20 6 -20 14 0 9 -15 17 -40 21 -25 4
-40 12 -40 21 0 10 -16 14 -62 15 -35 0 -97 2 -138 2 -41 1 -85 1 -97 -1z"/>
<path d="M3170 1010 l0 -40 40 0 c36 0 40 3 40 25 0 18 -5 25 -20 25 -11 0
-20 7 -20 15 0 8 -9 15 -20 15 -17 0 -20 -7 -20 -40z"/>
<path d="M1283 2232 l-23 -3 0 -240 c0 -232 1 -239 20 -239 13 0 20 -7 20 -20
0 -13 7 -20 20 -20 11 0 20 7 20 15 0 12 15 15 78 15 42 0 114 3 160 7 71 5
82 8 82 24 0 14 7 19 25 19 18 0 25 5 25 20 0 13 7 20 20 20 17 0 20 7 20 40
0 29 4 40 15 40 12 0 15 13 15 60 0 47 -3 60 -15 60 -11 0 -15 11 -15 40 0 33
-3 40 -20 40 -14 0 -20 7 -20 21 0 12 -8 23 -20 26 -11 3 -20 11 -20 18 0 8
-17 16 -40 20 -25 4 -40 12 -40 21 0 11 -19 14 -82 15 -46 1 -110 2 -143 3
-33 1 -70 0 -82 -2z"/>
<path d="M3450 2116 c0 -32 -2 -35 -40 -41 -25 -4 -40 -12 -40 -21 0 -8 -9
-14 -20 -14 -11 0 -20 7 -20 15 0 8 -9 15 -20 15 -13 0 -20 7 -20 19 0 22 -44
34 -90 25 -21 -5 -30 -12 -30 -25 0 -12 -7 -19 -20 -19 -17 0 -20 -7 -20 -40
0 -33 3 -40 20 -40 13 0 20 -7 20 -20 0 -13 -7 -20 -20 -20 -13 0 -20 -7 -20
-20 0 -13 -7 -20 -20 -20 -13 0 -20 -7 -20 -20 0 -18 -7 -20 -59 -20 -58 0
-59 -1 -65 -31 -12 -60 -7 -91 14 -96 11 -3 20 -11 20 -18 0 -8 10 -15 23 -17
19 -3 22 -10 25 -61 3 -51 1 -59 -17 -64 -10 -3 -21 -13 -24 -24 -3 -10 -12
-19 -21 -19 -9 0 -16 -8 -16 -20 0 -11 6 -20 14 -20 9 0 17 -16 21 -41 l7 -41
72 3 c39 1 83 2 99 1 l27 -2 0 -80 0 -80 41 0 c32 0 42 -4 46 -20 3 -11 12
-20 19 -20 8 0 14 9 14 20 0 13 7 20 20 20 13 0 20 7 20 20 0 13 7 20 20 20
13 0 20 7 20 20 0 18 7 20 59 20 l59 0 7 -40 c7 -39 8 -40 46 -40 32 0 39 3
39 20 0 13 7 20 20 20 13 0 20 7 20 20 0 11 7 20 15 20 8 0 15 9 15 20 0 11
-7 20 -15 20 -11 0 -15 11 -15 40 0 33 3 40 20 40 13 0 20 7 20 20 0 18 7 20
60 20 53 0 60 2 60 20 0 13 7 20 20 20 18 0 20 7 20 59 l0 59 -40 7 c-38 6
-40 9 -40 42 0 26 -5 36 -20 40 -11 3 -20 12 -20 19 0 8 9 14 20 14 15 0 20 7
20 25 0 18 5 25 20 25 18 0 20 7 20 60 0 53 -2 60 -20 60 -13 0 -20 7 -20 20
0 13 -7 20 -20 20 -13 0 -20 -7 -20 -20 0 -16 -7 -20 -37 -20 -55 0 -81 9 -86
31 -3 10 -12 19 -21 19 -12 0 -16 10 -16 35 0 24 5 35 15 35 8 0 15 9 15 20 0
12 -7 20 -16 20 -9 0 -18 9 -21 20 -5 17 -14 20 -64 20 l-59 0 0 -34z m-40
-186 c0 -18 7 -20 60 -20 53 0 60 -2 60 -20 0 -15 7 -20 25 -20 18 0 25 -5 25
-20 0 -11 6 -20 14 -20 10 0 17 -16 22 -45 4 -28 11 -45 20 -45 10 0 14 -13
14 -40 0 -29 -4 -40 -15 -40 -9 0 -15 -9 -15 -24 0 -46 -13 -86 -27 -86 -8 0
-17 -9 -20 -20 -3 -12 -17 -22 -38 -26 -21 -4 -35 -13 -38 -25 -4 -16 -15 -19
-75 -19 -88 0 -132 9 -132 26 0 8 -9 14 -20 14 -13 0 -20 7 -20 20 0 13 -7 20
-20 20 -15 0 -20 7 -20 25 0 18 -5 25 -20 25 -19 0 -20 7 -20 100 0 93 1 100
20 100 16 0 20 7 20 34 0 32 2 35 40 41 30 5 40 11 40 26 0 16 7 19 45 19 38
0 45 3 45 20 0 11 7 20 15 20 8 0 15 -9 15 -20z"/>
<path d="M3290 1850 c0 -13 -7 -20 -20 -20 -15 0 -20 -7 -20 -25 0 -18 -5 -25
-20 -25 -18 0 -20 -7 -20 -80 0 -73 2 -80 20 -80 16 0 20 -7 20 -34 0 -32 2
-35 40 -41 30 -5 40 -11 40 -26 0 -17 8 -19 80 -19 73 0 80 2 80 20 0 15 7 20
25 20 18 0 25 5 25 19 0 10 9 21 20 24 16 4 20 14 20 46 0 34 3 41 20 41 16 0
20 7 20 35 0 28 -4 35 -19 35 -15 0 -20 10 -25 45 -6 36 -11 45 -27 45 -12 0
-19 7 -19 20 0 19 -7 20 -120 20 -113 0 -120 -1 -120 -20z"/>
</g>
</svg>
